<mxfile host="Electron" agent="Mozilla/5.0 (Windows NT 10.0; Win64; x64) AppleWebKit/537.36 (KHTML, like Gecko) draw.io/26.1.1 Chrome/132.0.6834.210 Electron/34.3.3 Safari/537.36" version="26.1.1">
  <diagram name="Page-1" id="2YBvvXClWsGukQMizWep">
    <mxGraphModel dx="1164" dy="1060" grid="1" gridSize="10" guides="1" tooltips="1" connect="1" arrows="1" fold="1" page="1" pageScale="1" pageWidth="3300" pageHeight="4681" math="0" shadow="0">
      <root>
        <mxCell id="0" />
        <mxCell id="1" parent="0" />
        <mxCell id="UqcoW8q_7OCbUji6oq3k-7" value="Lifeline1" style="shape=umlLifeline;perimeter=lifelinePerimeter;whiteSpace=wrap;html=1;container=1;dropTarget=0;collapsible=0;recursiveResize=0;outlineConnect=0;portConstraint=eastwest;newEdgeStyle={&quot;edgeStyle&quot;:&quot;elbowEdgeStyle&quot;,&quot;elbow&quot;:&quot;vertical&quot;,&quot;curved&quot;:0,&quot;rounded&quot;:0};size=25;movable=1;resizable=1;rotatable=1;deletable=1;editable=1;locked=0;connectable=1;" parent="1" vertex="1">
          <mxGeometry x="815" y="420" width="100" height="840" as="geometry" />
        </mxCell>
        <mxCell id="UqcoW8q_7OCbUji6oq3k-8" value="" style="html=1;points=[];perimeter=orthogonalPerimeter;outlineConnect=0;targetShapes=umlLifeline;portConstraint=eastwest;newEdgeStyle={&quot;edgeStyle&quot;:&quot;elbowEdgeStyle&quot;,&quot;elbow&quot;:&quot;vertical&quot;,&quot;curved&quot;:0,&quot;rounded&quot;:0};" parent="UqcoW8q_7OCbUji6oq3k-7" vertex="1">
          <mxGeometry x="45" y="330" width="10" height="70" as="geometry" />
        </mxCell>
        <mxCell id="UqcoW8q_7OCbUji6oq3k-10" value="Lifeline1" style="shape=umlLifeline;perimeter=lifelinePerimeter;whiteSpace=wrap;html=1;container=1;dropTarget=0;collapsible=0;recursiveResize=0;outlineConnect=0;portConstraint=eastwest;newEdgeStyle={&quot;edgeStyle&quot;:&quot;elbowEdgeStyle&quot;,&quot;elbow&quot;:&quot;vertical&quot;,&quot;curved&quot;:0,&quot;rounded&quot;:0};size=25;movable=1;resizable=1;rotatable=1;deletable=1;editable=1;locked=0;connectable=1;" parent="1" vertex="1">
          <mxGeometry x="655" y="420" width="100" height="840" as="geometry" />
        </mxCell>
        <mxCell id="UqcoW8q_7OCbUji6oq3k-11" value="" style="html=1;points=[];perimeter=orthogonalPerimeter;outlineConnect=0;targetShapes=umlLifeline;portConstraint=eastwest;newEdgeStyle={&quot;edgeStyle&quot;:&quot;elbowEdgeStyle&quot;,&quot;elbow&quot;:&quot;vertical&quot;,&quot;curved&quot;:0,&quot;rounded&quot;:0};" parent="UqcoW8q_7OCbUji6oq3k-10" vertex="1">
          <mxGeometry x="45" y="190" width="10" height="150" as="geometry" />
        </mxCell>
        <mxCell id="UqcoW8q_7OCbUji6oq3k-12" value="Lifeline1" style="shape=umlLifeline;perimeter=lifelinePerimeter;whiteSpace=wrap;html=1;container=1;dropTarget=0;collapsible=0;recursiveResize=0;outlineConnect=0;portConstraint=eastwest;newEdgeStyle={&quot;edgeStyle&quot;:&quot;elbowEdgeStyle&quot;,&quot;elbow&quot;:&quot;vertical&quot;,&quot;curved&quot;:0,&quot;rounded&quot;:0};size=25;movable=1;resizable=1;rotatable=1;deletable=1;editable=1;locked=0;connectable=1;" parent="1" vertex="1">
          <mxGeometry x="495" y="420" width="100" height="840" as="geometry" />
        </mxCell>
        <mxCell id="UqcoW8q_7OCbUji6oq3k-13" value="" style="html=1;points=[];perimeter=orthogonalPerimeter;outlineConnect=0;targetShapes=umlLifeline;portConstraint=eastwest;newEdgeStyle={&quot;edgeStyle&quot;:&quot;elbowEdgeStyle&quot;,&quot;elbow&quot;:&quot;vertical&quot;,&quot;curved&quot;:0,&quot;rounded&quot;:0};" parent="UqcoW8q_7OCbUji6oq3k-12" vertex="1">
          <mxGeometry x="45" y="70" width="10" height="210" as="geometry" />
        </mxCell>
        <mxCell id="UqcoW8q_7OCbUji6oq3k-14" value="Lifeline1" style="shape=umlLifeline;perimeter=lifelinePerimeter;whiteSpace=wrap;html=1;container=1;dropTarget=0;collapsible=0;recursiveResize=0;outlineConnect=0;portConstraint=eastwest;newEdgeStyle={&quot;edgeStyle&quot;:&quot;elbowEdgeStyle&quot;,&quot;elbow&quot;:&quot;vertical&quot;,&quot;curved&quot;:0,&quot;rounded&quot;:0};size=25;movable=1;resizable=1;rotatable=1;deletable=1;editable=1;locked=0;connectable=1;" parent="1" vertex="1">
          <mxGeometry x="335" y="410" width="100" height="850" as="geometry" />
        </mxCell>
        <mxCell id="UqcoW8q_7OCbUji6oq3k-16" value="" style="shape=umlActor;verticalLabelPosition=bottom;verticalAlign=top;html=1;outlineConnect=0;" parent="1" vertex="1">
          <mxGeometry x="230" y="390" width="30" height="60" as="geometry" />
        </mxCell>
        <mxCell id="UqcoW8q_7OCbUji6oq3k-17" value="&lt;span style=&quot;font-size: 10px;&quot;&gt;Homescreen&lt;/span&gt;" style="html=1;whiteSpace=wrap;fillColor=#dae8fc;strokeColor=#6c8ebf;" parent="1" vertex="1">
          <mxGeometry x="330" y="410" width="110" height="40" as="geometry" />
        </mxCell>
        <mxCell id="UqcoW8q_7OCbUji6oq3k-18" value="&lt;font style=&quot;font-size: 10px;&quot;&gt;RateFoodScreen&lt;/font&gt;" style="html=1;whiteSpace=wrap;fillColor=#dae8fc;strokeColor=#6c8ebf;" parent="1" vertex="1">
          <mxGeometry x="490" y="410" width="110" height="40" as="geometry" />
        </mxCell>
        <mxCell id="UqcoW8q_7OCbUji6oq3k-19" value="&lt;span style=&quot;font-size: 10px;&quot;&gt;DishSelectionScreen&lt;/span&gt;" style="html=1;whiteSpace=wrap;fillColor=#dae8fc;strokeColor=#6c8ebf;" parent="1" vertex="1">
          <mxGeometry x="650" y="410" width="110" height="40" as="geometry" />
        </mxCell>
        <mxCell id="UqcoW8q_7OCbUji6oq3k-20" value="RatingScreen" style="html=1;whiteSpace=wrap;fillColor=#dae8fc;strokeColor=#6c8ebf;" parent="1" vertex="1">
          <mxGeometry x="810" y="410" width="110" height="40" as="geometry" />
        </mxCell>
        <mxCell id="UqcoW8q_7OCbUji6oq3k-22" value="" style="html=1;points=[];perimeter=orthogonalPerimeter;outlineConnect=0;targetShapes=umlLifeline;portConstraint=eastwest;newEdgeStyle={&quot;edgeStyle&quot;:&quot;elbowEdgeStyle&quot;,&quot;elbow&quot;:&quot;vertical&quot;,&quot;curved&quot;:0,&quot;rounded&quot;:0};" parent="1" vertex="1">
          <mxGeometry x="380" y="460" width="10" height="70" as="geometry" />
        </mxCell>
        <mxCell id="UqcoW8q_7OCbUji6oq3k-23" value="" style="html=1;points=[];perimeter=orthogonalPerimeter;outlineConnect=0;targetShapes=umlLifeline;portConstraint=eastwest;newEdgeStyle={&quot;edgeStyle&quot;:&quot;elbowEdgeStyle&quot;,&quot;elbow&quot;:&quot;vertical&quot;,&quot;curved&quot;:0,&quot;rounded&quot;:0};" parent="1" vertex="1">
          <mxGeometry x="240" y="460" width="10" height="800" as="geometry" />
        </mxCell>
        <mxCell id="UqcoW8q_7OCbUji6oq3k-24" value="User" style="text;html=1;align=center;verticalAlign=middle;whiteSpace=wrap;rounded=0;" parent="1" vertex="1">
          <mxGeometry x="215" y="360" width="60" height="30" as="geometry" />
        </mxCell>
        <mxCell id="UqcoW8q_7OCbUji6oq3k-25" value="&lt;font style=&quot;font-size: 10px;&quot;&gt;homescreen_page&lt;/font&gt;&lt;font style=&quot;font-size: 8px;&quot;&gt;()&lt;/font&gt;" style="html=1;verticalAlign=bottom;endArrow=block;curved=0;rounded=0;fontSize=10;startSize=8;endSize=8;" parent="1" edge="1">
          <mxGeometry width="80" relative="1" as="geometry">
            <mxPoint x="250" y="490" as="sourcePoint" />
            <mxPoint x="380" y="490" as="targetPoint" />
          </mxGeometry>
        </mxCell>
        <mxCell id="UqcoW8q_7OCbUji6oq3k-26" value="onRateFoodButtonClicked()" style="html=1;verticalAlign=bottom;endArrow=block;curved=0;rounded=0;" parent="1" edge="1">
          <mxGeometry width="80" relative="1" as="geometry">
            <mxPoint x="390" y="500" as="sourcePoint" />
            <mxPoint x="540" y="500" as="targetPoint" />
          </mxGeometry>
        </mxCell>
        <mxCell id="UqcoW8q_7OCbUji6oq3k-27" value="onSelectDishButton()" style="html=1;verticalAlign=bottom;endArrow=block;curved=0;rounded=0;" parent="1" edge="1">
          <mxGeometry width="80" relative="1" as="geometry">
            <mxPoint x="550" y="690" as="sourcePoint" />
            <mxPoint x="700" y="690" as="targetPoint" />
            <mxPoint as="offset" />
          </mxGeometry>
        </mxCell>
        <mxCell id="UqcoW8q_7OCbUji6oq3k-28" value="navigateToRatingScreen()" style="html=1;verticalAlign=bottom;endArrow=block;curved=0;rounded=0;" parent="1" edge="1">
          <mxGeometry width="80" relative="1" as="geometry">
            <mxPoint x="710" y="759.57" as="sourcePoint" />
            <mxPoint x="860" y="759.57" as="targetPoint" />
          </mxGeometry>
        </mxCell>
        <mxCell id="UqcoW8q_7OCbUji6oq3k-30" value="loop" style="shape=umlFrame;whiteSpace=wrap;html=1;pointerEvents=0;recursiveResize=0;container=0;collapsible=0;width=170;fillColor=#f8cecc;strokeColor=#b85450;" parent="1" vertex="1">
          <mxGeometry x="230" y="805" width="860" height="195" as="geometry" />
        </mxCell>
        <mxCell id="UqcoW8q_7OCbUji6oq3k-42" value="fetchDishList()" style="html=1;verticalAlign=bottom;endArrow=open;dashed=1;endSize=8;curved=0;rounded=0;" parent="1" source="UqcoW8q_7OCbUji6oq3k-11" edge="1">
          <mxGeometry relative="1" as="geometry">
            <mxPoint x="690" y="640" as="sourcePoint" />
            <mxPoint x="550" y="640" as="targetPoint" />
          </mxGeometry>
        </mxCell>
        <mxCell id="UqcoW8q_7OCbUji6oq3k-78" value="requestDishList()" style="html=1;verticalAlign=bottom;endArrow=block;curved=0;rounded=0;" parent="1" source="UqcoW8q_7OCbUji6oq3k-13" edge="1">
          <mxGeometry width="80" relative="1" as="geometry">
            <mxPoint x="560" y="620" as="sourcePoint" />
            <mxPoint x="700" y="620" as="targetPoint" />
            <mxPoint as="offset" />
          </mxGeometry>
        </mxCell>
        <mxCell id="UqcoW8q_7OCbUji6oq3k-107" value="alt" style="shape=umlFrame;whiteSpace=wrap;html=1;pointerEvents=0;recursiveResize=0;container=0;collapsible=0;width=170;fillColor=#fad7ac;strokeColor=#b46504;" parent="1" vertex="1">
          <mxGeometry x="120" y="1030" width="1020" height="250" as="geometry" />
        </mxCell>
        <mxCell id="dJObFjWrROtKkb_Vig1Z-1" value="&lt;font style=&quot;font-size: 10px;&quot;&gt;navigateToRateFoodScreen()&lt;/font&gt;" style="html=1;verticalAlign=bottom;endArrow=block;curved=0;rounded=0;" edge="1" parent="1">
          <mxGeometry x="-0.0667" y="-20" width="80" relative="1" as="geometry">
            <mxPoint x="390" y="520" as="sourcePoint" />
            <mxPoint x="540" y="520" as="targetPoint" />
            <mxPoint as="offset" />
          </mxGeometry>
        </mxCell>
        <mxCell id="dJObFjWrROtKkb_Vig1Z-4" value="&lt;font style=&quot;font-size: 10px;&quot;&gt;rateSelectedDish()&lt;/font&gt;" style="html=1;verticalAlign=bottom;endArrow=block;curved=0;rounded=0;" edge="1" parent="1" source="UqcoW8q_7OCbUji6oq3k-8">
          <mxGeometry x="0.2" y="-50" width="80" relative="1" as="geometry">
            <mxPoint x="945.07" y="780" as="sourcePoint" />
            <mxPoint x="869.9985714285714" y="780" as="targetPoint" />
            <Array as="points">
              <mxPoint x="910" y="760" />
              <mxPoint x="910" y="780" />
            </Array>
            <mxPoint x="50" y="50" as="offset" />
          </mxGeometry>
        </mxCell>
        <mxCell id="UqcoW8q_7OCbUji6oq3k-31" value="user wants to rate another dish" style="text;html=1;align=center;verticalAlign=middle;whiteSpace=wrap;rounded=0;" parent="1" vertex="1">
          <mxGeometry x="110" y="860" width="100" height="10" as="geometry" />
        </mxCell>
        <mxCell id="UqcoW8q_7OCbUji6oq3k-49" style="edgeStyle=elbowEdgeStyle;rounded=0;orthogonalLoop=1;jettySize=auto;html=1;elbow=vertical;curved=0;" parent="1" edge="1">
          <mxGeometry relative="1" as="geometry">
            <mxPoint x="860" y="810.0026086956523" as="sourcePoint" />
            <mxPoint x="710" y="810.0000000000002" as="targetPoint" />
          </mxGeometry>
        </mxCell>
        <mxCell id="UqcoW8q_7OCbUji6oq3k-51" value="&lt;font style=&quot;font-size: 10px;&quot;&gt;onBackButtonClicked()&lt;/font&gt;" style="text;html=1;align=center;verticalAlign=middle;whiteSpace=wrap;rounded=0;" parent="1" vertex="1">
          <mxGeometry x="740" y="810" width="90" height="10" as="geometry" />
        </mxCell>
        <mxCell id="UqcoW8q_7OCbUji6oq3k-52" style="edgeStyle=elbowEdgeStyle;rounded=0;orthogonalLoop=1;jettySize=auto;html=1;elbow=vertical;curved=0;" parent="1" edge="1">
          <mxGeometry relative="1" as="geometry">
            <mxPoint x="700" y="850.0026086956523" as="sourcePoint" />
            <mxPoint x="550" y="850.0000000000002" as="targetPoint" />
          </mxGeometry>
        </mxCell>
        <mxCell id="UqcoW8q_7OCbUji6oq3k-53" value="&lt;span style=&quot;font-size: 10px; text-wrap-mode: wrap; background-color: rgb(251, 251, 251);&quot;&gt;navigateToRateFoodScreen()&lt;/span&gt;" style="edgeLabel;html=1;align=center;verticalAlign=middle;resizable=0;points=[];" parent="UqcoW8q_7OCbUji6oq3k-52" vertex="1" connectable="0">
          <mxGeometry x="0.4132" y="-2" relative="1" as="geometry">
            <mxPoint x="27" y="12" as="offset" />
          </mxGeometry>
        </mxCell>
        <mxCell id="UqcoW8q_7OCbUji6oq3k-15" value="" style="html=1;points=[];perimeter=orthogonalPerimeter;outlineConnect=0;targetShapes=umlLifeline;portConstraint=eastwest;newEdgeStyle={&quot;edgeStyle&quot;:&quot;elbowEdgeStyle&quot;,&quot;elbow&quot;:&quot;vertical&quot;,&quot;curved&quot;:0,&quot;rounded&quot;:0};" parent="1" vertex="1">
          <mxGeometry x="380" y="1170" width="10" height="80" as="geometry" />
        </mxCell>
        <mxCell id="UqcoW8q_7OCbUji6oq3k-54" value="" style="html=1;points=[];perimeter=orthogonalPerimeter;outlineConnect=0;targetShapes=umlLifeline;portConstraint=eastwest;newEdgeStyle={&quot;edgeStyle&quot;:&quot;elbowEdgeStyle&quot;,&quot;elbow&quot;:&quot;vertical&quot;,&quot;curved&quot;:0,&quot;rounded&quot;:0};" parent="1" vertex="1">
          <mxGeometry x="540" y="840" width="10" height="130" as="geometry" />
        </mxCell>
        <mxCell id="UqcoW8q_7OCbUji6oq3k-55" value="" style="html=1;points=[];perimeter=orthogonalPerimeter;outlineConnect=0;targetShapes=umlLifeline;portConstraint=eastwest;newEdgeStyle={&quot;edgeStyle&quot;:&quot;elbowEdgeStyle&quot;,&quot;elbow&quot;:&quot;vertical&quot;,&quot;curved&quot;:0,&quot;rounded&quot;:0};" parent="1" vertex="1">
          <mxGeometry x="700" y="900" width="10" height="80" as="geometry" />
        </mxCell>
        <mxCell id="UqcoW8q_7OCbUji6oq3k-56" value="fetchDishList()" style="html=1;verticalAlign=bottom;endArrow=open;dashed=1;endSize=8;curved=0;rounded=0;" parent="1" edge="1">
          <mxGeometry relative="1" as="geometry">
            <mxPoint x="698.75" y="930" as="sourcePoint" />
            <mxPoint x="551.25" y="930" as="targetPoint" />
          </mxGeometry>
        </mxCell>
        <mxCell id="UqcoW8q_7OCbUji6oq3k-57" value="onSelectDishButton()" style="html=1;verticalAlign=bottom;endArrow=block;curved=0;rounded=0;" parent="1" edge="1">
          <mxGeometry width="80" relative="1" as="geometry">
            <mxPoint x="550" y="959.1299999999999" as="sourcePoint" />
            <mxPoint x="700" y="959.1299999999999" as="targetPoint" />
            <mxPoint as="offset" />
          </mxGeometry>
        </mxCell>
        <mxCell id="UqcoW8q_7OCbUji6oq3k-58" value="" style="html=1;points=[];perimeter=orthogonalPerimeter;outlineConnect=0;targetShapes=umlLifeline;portConstraint=eastwest;newEdgeStyle={&quot;edgeStyle&quot;:&quot;elbowEdgeStyle&quot;,&quot;elbow&quot;:&quot;vertical&quot;,&quot;curved&quot;:0,&quot;rounded&quot;:0};" parent="1" vertex="1">
          <mxGeometry x="860" y="960" width="10" height="55" as="geometry" />
        </mxCell>
        <mxCell id="UqcoW8q_7OCbUji6oq3k-60" value="navigateToRatingScreen()" style="html=1;verticalAlign=bottom;endArrow=block;curved=0;rounded=0;" parent="1" edge="1">
          <mxGeometry width="80" relative="1" as="geometry">
            <mxPoint x="710" y="969.1300000000001" as="sourcePoint" />
            <mxPoint x="860" y="970" as="targetPoint" />
          </mxGeometry>
        </mxCell>
        <mxCell id="UqcoW8q_7OCbUji6oq3k-68" style="edgeStyle=elbowEdgeStyle;rounded=0;orthogonalLoop=1;jettySize=auto;html=1;elbow=vertical;curved=0;" parent="1" source="UqcoW8q_7OCbUji6oq3k-62" target="UqcoW8q_7OCbUji6oq3k-63" edge="1">
          <mxGeometry relative="1" as="geometry" />
        </mxCell>
        <mxCell id="UqcoW8q_7OCbUji6oq3k-62" value="" style="html=1;points=[];perimeter=orthogonalPerimeter;outlineConnect=0;targetShapes=umlLifeline;portConstraint=eastwest;newEdgeStyle={&quot;edgeStyle&quot;:&quot;elbowEdgeStyle&quot;,&quot;elbow&quot;:&quot;vertical&quot;,&quot;curved&quot;:0,&quot;rounded&quot;:0};" parent="1" vertex="1">
          <mxGeometry x="860" y="1055" width="10" height="55" as="geometry" />
        </mxCell>
        <mxCell id="UqcoW8q_7OCbUji6oq3k-71" style="edgeStyle=elbowEdgeStyle;rounded=0;orthogonalLoop=1;jettySize=auto;html=1;elbow=vertical;curved=0;" parent="1" source="UqcoW8q_7OCbUji6oq3k-63" target="UqcoW8q_7OCbUji6oq3k-70" edge="1">
          <mxGeometry relative="1" as="geometry" />
        </mxCell>
        <mxCell id="UqcoW8q_7OCbUji6oq3k-63" value="" style="html=1;points=[];perimeter=orthogonalPerimeter;outlineConnect=0;targetShapes=umlLifeline;portConstraint=eastwest;newEdgeStyle={&quot;edgeStyle&quot;:&quot;elbowEdgeStyle&quot;,&quot;elbow&quot;:&quot;vertical&quot;,&quot;curved&quot;:0,&quot;rounded&quot;:0};" parent="1" vertex="1">
          <mxGeometry x="700" y="1090" width="10" height="55" as="geometry" />
        </mxCell>
        <mxCell id="UqcoW8q_7OCbUji6oq3k-64" value="&lt;span style=&quot;font-size: 10px;&quot;&gt;onBackButtonClicked()&lt;/span&gt;" style="text;html=1;align=center;verticalAlign=middle;whiteSpace=wrap;rounded=0;" parent="1" vertex="1">
          <mxGeometry x="740" y="1100" width="90" height="10" as="geometry" />
        </mxCell>
        <mxCell id="UqcoW8q_7OCbUji6oq3k-73" style="edgeStyle=elbowEdgeStyle;rounded=0;orthogonalLoop=1;jettySize=auto;html=1;elbow=vertical;curved=0;" parent="1" source="UqcoW8q_7OCbUji6oq3k-70" target="UqcoW8q_7OCbUji6oq3k-15" edge="1">
          <mxGeometry relative="1" as="geometry" />
        </mxCell>
        <mxCell id="UqcoW8q_7OCbUji6oq3k-70" value="" style="html=1;points=[];perimeter=orthogonalPerimeter;outlineConnect=0;targetShapes=umlLifeline;portConstraint=eastwest;newEdgeStyle={&quot;edgeStyle&quot;:&quot;elbowEdgeStyle&quot;,&quot;elbow&quot;:&quot;vertical&quot;,&quot;curved&quot;:0,&quot;rounded&quot;:0};" parent="1" vertex="1">
          <mxGeometry x="540" y="1130" width="10" height="50" as="geometry" />
        </mxCell>
        <mxCell id="UqcoW8q_7OCbUji6oq3k-72" value="&lt;span style=&quot;font-size: 10px;&quot;&gt;navigateToRateFoodScreen()&lt;/span&gt;" style="text;html=1;align=center;verticalAlign=middle;whiteSpace=wrap;rounded=0;" parent="1" vertex="1">
          <mxGeometry x="580" y="1145" width="90" height="10" as="geometry" />
        </mxCell>
        <mxCell id="UqcoW8q_7OCbUji6oq3k-74" value="&lt;span style=&quot;font-size: 10px;&quot;&gt;navigateToHomescreen()&lt;/span&gt;" style="text;html=1;align=center;verticalAlign=middle;whiteSpace=wrap;rounded=0;" parent="1" vertex="1">
          <mxGeometry x="420" y="1160" width="90" height="10" as="geometry" />
        </mxCell>
        <mxCell id="UqcoW8q_7OCbUji6oq3k-76" value="" style="html=1;points=[];perimeter=orthogonalPerimeter;outlineConnect=0;targetShapes=umlLifeline;portConstraint=eastwest;newEdgeStyle={&quot;edgeStyle&quot;:&quot;elbowEdgeStyle&quot;,&quot;elbow&quot;:&quot;vertical&quot;,&quot;curved&quot;:0,&quot;rounded&quot;:0};" parent="1" vertex="1">
          <mxGeometry x="700" y="800" width="10" height="60" as="geometry" />
        </mxCell>
        <mxCell id="UqcoW8q_7OCbUji6oq3k-81" value="requestDishList()" style="html=1;verticalAlign=bottom;endArrow=block;curved=0;rounded=0;" parent="1" edge="1">
          <mxGeometry width="80" relative="1" as="geometry">
            <mxPoint x="550" y="910" as="sourcePoint" />
            <mxPoint x="700" y="910" as="targetPoint" />
            <mxPoint as="offset" />
          </mxGeometry>
        </mxCell>
        <mxCell id="UqcoW8q_7OCbUji6oq3k-61" value="user is done with rating and wants to return to homescreen" style="text;html=1;align=center;verticalAlign=middle;whiteSpace=wrap;rounded=0;" parent="1" vertex="1">
          <mxGeometry x="135" y="1100" width="95" height="10" as="geometry" />
        </mxCell>
        <mxCell id="dJObFjWrROtKkb_Vig1Z-7" value="alt" style="shape=umlFrame;whiteSpace=wrap;html=1;pointerEvents=0;recursiveResize=0;container=0;collapsible=0;width=170;fillColor=#fad7ac;strokeColor=#b46504;" vertex="1" parent="1">
          <mxGeometry x="90" y="805" width="1050" height="215" as="geometry" />
        </mxCell>
        <mxCell id="dJObFjWrROtKkb_Vig1Z-8" value="&lt;font style=&quot;font-size: 10px;&quot;&gt;rateSelectedDish()&lt;/font&gt;" style="html=1;verticalAlign=bottom;endArrow=block;curved=0;rounded=0;" edge="1" parent="1">
          <mxGeometry x="0.2" y="-50" width="80" relative="1" as="geometry">
            <mxPoint x="870" y="970" as="sourcePoint" />
            <mxPoint x="869.9985714285714" y="990" as="targetPoint" />
            <Array as="points">
              <mxPoint x="910" y="970" />
              <mxPoint x="910" y="990" />
            </Array>
            <mxPoint x="50" y="50" as="offset" />
          </mxGeometry>
        </mxCell>
      </root>
    </mxGraphModel>
  </diagram>
</mxfile>
